<?xml version="1.0" encoding="UTF-8"?>
<svg id="Calque_2" data-name="Calque 2" xmlns="http://www.w3.org/2000/svg" viewBox="0 0 512.46 369.83">
  <path d="m139.94,185.21s1.37,0-6.86-19.21c-8.23-19.21-31.55-39.79-45.27-49.39s-24.69-10.98-24.69-10.98c0,0,4.12,26.07,9.6,50.76,5.49,24.69,13.72,30.18,24.69,35.67,10.98,5.49,24.69,2.74,24.69,2.74l-30.18-56.25,47.08,49.17.93-2.52h0Z" fill="#02d68a"/>
  <path d="m122.1,216.77s-32.93-5.78-58.99,7.4c-26.07,13.18-39.79,26.9-50.76,40.62-10.98,13.72-12.35,19.21-12.35,19.21,0,0,32.93,2.74,46.65,4.12,13.72,1.37,38.41-10.98,46.65-15.09,8.23-4.12,9.56-21.16,9.56-21.16l-74.04,19.79s62.18-30.88,72.25-35.33,15.56-9.94,15.56-9.94l5.49-9.6-.02-.02Z" fill="#02d68a"/>
  <path d="m157.77,189.33s0-17.84,10.98-48.02c10.98-30.18,42.53-58.99,42.53-58.99l15.09-10.98-17.84,56.25s30.18-19.21,43.9-30.18c13.72-10.98,23.32-17.84,34.3-39.79,10.98-21.95,9.6-57.62,9.6-57.62,0,0,31.55,16.46,49.39,39.79,17.84,23.32,42.53,61.74,42.53,61.74l-2.74-67.23s38.41,28.81,53.51,52.13c15.09,23.32,21.95,41.16,31.55,61.74s4.12,37.04,4.12,37.04l-27.35-8.41c-5.51-1.7-11.25-2.54-17.02-2.49-34.88.28-163.29,1.3-175.14,1.3-13.72,0-38.41-1.37-60.37,1.37-21.95,2.74-37.04,12.35-37.04,12.35h0Z" fill="#048453"/>
  <path d="m189.33,198.93s-18.74,1.59-40.24,16.57-26.99,35.56-29.73,53.4c-2.74,17.84,0,35.67,8.23,52.13s19.21,32.93,41.16,39.79,38.41,10.98,61.74,5.49c23.32-5.49,45.27-28.81,50.76-37.04,5.49-8.23,10.98-31.55,10.98-31.55h48.02s4.12,21.95,12.35,34.3,16.46,19.21,35.67,28.81c19.21,9.6,49.71,10.88,63.11,6.86,13.72-4.12,35.67-19.21,46.65-34.3,10.11-13.9,16.66-45.54,13.72-61.74-2.74-15.09-8.23-35.67-20.58-48.02s-32.93-24.69-53.51-26.07c-20.58-1.37-248.32,1.37-248.32,1.37h0Z" fill="#028553"/>
  <polygon points="190.7 235.97 190.7 267.6 161.23 267.6 161.23 297.96 190.7 297.96 190.7 327.38 220.88 327.89 220.88 297.96 252.44 297.71 252.44 266.67 220.88 267.53 221.48 235.97 190.7 235.97" fill="#fff"/>
  <circle cx="395.12" cy="281.25" r="13.72" fill="#fff"/>
  <circle cx="425.3" cy="252.44" r="13.72" fill="#fff"/>
  <circle cx="425.3" cy="312.8" r="13.72" fill="#fff"/>
  <circle cx="455.49" cy="282.62" r="13.72" fill="#fff"/>
</svg>